<svg xmlns="http://www.w3.org/2000/svg" width="381" height="288" viewBox="0 0 381 288" version="1.1"><path d="M 96.191 35.920 C 84.826 41.480, 79.741 45.144, 71.184 53.938 C 52.658 72.977, 37.450 100.574, 30.380 127.986 C 26.030 144.848, 23.973 165.350, 25.895 172.688 C 26.587 175.335, 27.391 178.939, 27.680 180.698 C 28.260 184.221, 37.004 193.438, 47.392 201.475 C 54.154 206.707, 56.377 207.471, 62.267 206.587 C 72.551 205.045, 86.881 192.544, 103.114 170.956 C 112.818 158.050, 125.433 139.389, 127.253 135.247 C 127.916 133.736, 128.723 132.275, 129.046 132 C 129.368 131.725, 131.086 129.363, 132.864 126.750 C 134.642 124.137, 136.310 122, 136.572 122 C 137.529 122, 136.163 143.591, 135.022 146.500 C 133.340 150.785, 133.258 187.111, 134.917 193 C 136.261 197.772, 140.375 204, 142.183 204 C 142.777 204, 144.739 202.436, 146.542 200.525 C 152.154 194.574, 156.473 178.478, 157.416 160 C 157.655 155.325, 158.334 149.928, 158.925 148.007 C 160.456 143.032, 160.256 137.525, 158.388 133.218 C 154.256 123.693, 152.872 117.230, 152.341 105 C 151.631 88.622, 153.210 81.150, 160.603 65.896 C 167.041 52.610, 166.967 51.201, 159.665 48.071 C 157.359 47.082, 154.883 45.564, 154.163 44.696 C 152.602 42.816, 150.335 43.470, 147.298 46.675 C 146.087 47.954, 144.489 49, 143.747 49 C 143.006 49, 139.908 46.587, 136.864 43.638 C 127.861 34.918, 123.162 32.665, 113.070 32.227 C 104.743 31.866, 104.265 31.970, 96.191 35.920 M 209.028 33.602 C 201.546 35.613, 188.040 42.957, 181.415 48.617 C 175.157 53.963, 166.024 65.627, 166.010 68.290 C 166.004 69.275, 165.089 71.313, 163.975 72.820 C 160.564 77.433, 157.870 87.794, 157.298 98.500 C 156.851 106.862, 157.130 109.857, 159.001 116.786 C 160.232 121.344, 162.310 126.651, 163.619 128.581 C 164.929 130.510, 166 133.018, 166 134.153 C 166 136.704, 174.241 147.191, 181.352 153.691 C 184.270 156.358, 190.135 160.281, 194.384 162.409 C 201.274 165.860, 202.370 166.140, 204.507 164.996 C 205.826 164.290, 207.357 162.414, 207.911 160.825 C 208.465 159.236, 210.460 156.038, 212.346 153.718 C 216.754 148.293, 219.992 142.907, 219.996 140.991 C 219.999 140.036, 217.576 138.613, 213.395 137.113 C 208.395 135.320, 205.393 133.377, 201.041 129.120 C 191.823 120.100, 188.432 111.258, 189.202 98.254 C 190.287 79.917, 201.914 67.163, 220.494 63.928 C 231.330 62.041, 243.862 66.055, 253.863 74.615 C 256.038 76.477, 258.286 78, 258.858 78 C 259.430 78, 261.007 76.538, 262.363 74.750 C 265.853 70.146, 275 54.092, 275 52.569 C 275 50.537, 264.212 42.624, 255.500 38.266 C 250.917 35.973, 244.689 33.780, 240.918 33.132 C 231.908 31.582, 215.652 31.822, 209.028 33.602 M 104 34.963 C 94.072 38.318, 78.915 48.198, 71.414 56.206 C 53.876 74.927, 36.734 107.700, 31.508 132.500 C 26.765 155.006, 25.985 165.957, 28.403 176.068 C 30.237 183.735, 30.893 184.728, 38.668 191.612 C 49.065 200.817, 55.643 205, 59.722 205 C 68.544 205, 84.569 191.896, 99.466 172.500 C 105.707 164.375, 118.124 146.152, 128.341 130.122 C 133.129 122.610, 136.904 118.474, 137.924 119.621 C 138.896 120.715, 137.563 147.163, 135.937 159.067 C 133.835 174.450, 136.146 195.574, 140.396 199.825 C 146.240 205.669, 154.446 182.361, 155.488 156.959 C 155.747 150.656, 155.596 146.367, 155.154 147.427 C 153.618 151.107, 153.084 146.557, 154.251 139.741 C 155.183 134.304, 155.092 132.414, 153.684 127.886 C 149.816 115.453, 148.893 101.859, 150.937 87.443 C 152.147 78.910, 153.591 74.709, 159.142 63.561 C 164.422 52.959, 164.399 52.899, 152.323 46.469 C 151.676 46.124, 149.697 47.228, 147.925 48.921 C 146.153 50.615, 144.095 52, 143.352 52 C 142.608 52, 139.365 49.365, 136.144 46.144 C 132.923 42.923, 127.861 39.135, 124.894 37.725 C 119.064 34.955, 108.254 33.526, 104 34.963 M 210.500 35.572 C 202.755 37.900, 190.092 44.523, 183.809 49.532 C 164.336 65.055, 154.442 95.213, 161.321 118.073 C 163.620 125.709, 171.308 140.053, 175.804 145.090 C 184.202 154.502, 199.943 165.003, 203.567 163.613 C 204.298 163.332, 205.660 161.617, 206.595 159.801 C 207.530 157.986, 210.501 153.224, 213.197 149.221 L 218.100 141.942 211.504 138.855 C 202.126 134.466, 195.140 127.707, 190.465 118.495 C 186.761 111.199, 186.610 110.514, 186.653 101.199 C 186.692 92.381, 186.986 90.904, 189.885 84.937 C 194.091 76.280, 201.315 68.955, 209.733 64.810 C 215.917 61.766, 217.221 61.500, 225.978 61.500 C 237.468 61.500, 242.076 63.044, 251.621 70.089 C 255.319 72.819, 258.787 74.904, 259.329 74.724 C 259.870 74.543, 263.272 69.529, 266.888 63.580 L 273.462 52.765 269.481 49.420 C 263.727 44.586, 249.367 37.412, 242.988 36.185 C 232.854 34.235, 216.004 33.917, 210.500 35.572 M 300.500 34.733 C 296.373 35.330, 294.756 37.020, 288.846 46.919 C 283.392 56.052, 278.065 64.551, 269.680 77.500 L 264.500 85.500 264 98.557 C 263.524 110.989, 263.335 111.940, 260.055 118.396 C 255.840 126.694, 250.245 131.762, 239.621 136.900 C 232.524 140.334, 231.207 141.445, 226.353 148.106 C 223.389 152.173, 219.510 158.323, 217.732 161.773 C 214.966 167.142, 214.716 168.186, 216 169.008 C 216.883 169.574, 231.516 169.976, 251.595 169.985 C 283.971 169.999, 285.778 169.903, 287.430 168.078 C 288.983 166.361, 289.092 164.700, 288.448 152.553 C 288.052 145.071, 287.383 138.736, 286.961 138.476 C 286.540 138.215, 283.227 137.889, 279.599 137.751 C 275.972 137.613, 273.003 137.148, 273.002 136.717 C 272.997 134.902, 278.573 125.195, 286.752 112.780 L 295.500 99.500 296.121 114.500 C 296.462 122.750, 296.800 146.938, 296.871 168.250 L 297 207 311.941 207 C 322.217 207, 327.106 206.637, 327.601 205.837 C 327.996 205.198, 328.533 196.904, 328.794 187.407 L 329.269 170.140 344.173 169.820 C 356.084 169.564, 359.267 169.199, 360.023 168 C 360.544 167.175, 360.976 160.301, 360.985 152.725 L 361 138.950 358.435 137.975 C 357.024 137.439, 349.824 137, 342.435 137 L 329 137 329 87.082 C 329 59.627, 328.727 36.452, 328.393 35.582 C 327.881 34.248, 325.885 34.023, 315.643 34.150 C 308.964 34.232, 302.150 34.495, 300.500 34.733 M 298.310 37.787 C 295.471 39.592, 267.038 85.447, 266.913 88.421 C 266.865 89.565, 266.736 95, 266.627 100.500 C 266.451 109.341, 266.073 111.253, 263.367 117 C 258.569 127.187, 252.353 133.317, 241.576 138.489 C 234.305 141.979, 231.791 143.767, 229.342 147.191 C 223.648 155.154, 217.947 165.105, 218.535 166.057 C 219.190 167.116, 277.146 167.367, 283.377 166.338 L 287.254 165.697 286.538 153.099 C 286.145 146.169, 285.750 140.427, 285.662 140.338 C 285.573 140.249, 282.422 139.985, 278.660 139.752 C 274.393 139.487, 271.507 138.820, 270.987 137.978 C 270.446 137.104, 271.597 133.965, 274.257 129.064 C 278.869 120.564, 291.141 101.696, 294.314 98.226 C 296.259 96.099, 296.462 96.067, 297.447 97.726 C 298.137 98.888, 298.615 117.698, 298.834 152.278 L 299.168 205.055 312.834 204.778 L 326.500 204.500 327 186.830 C 327.275 177.112, 327.839 168.823, 328.254 168.410 C 328.669 167.997, 335.644 167.398, 343.754 167.079 L 358.500 166.500 358.778 153.342 L 359.057 140.185 344.278 139.842 C 336.150 139.654, 328.938 139.136, 328.250 138.691 C 327.277 138.061, 327 126.696, 327 87.441 L 327 37 313.250 37.015 C 305.688 37.024, 298.965 37.371, 298.310 37.787 M 85.800 50.255 C 72.183 58.516, 51.913 87.837, 39.351 117.445 C 35.585 126.321, 32 138.847, 32 143.129 C 32 144.643, 31.554 146.157, 31.009 146.494 C 29.905 147.177, 29.924 155, 31.030 155 C 31.834 155, 35.310 145.666, 36.988 139 C 39.220 130.132, 45.204 114.320, 50.149 104.221 C 57.459 89.291, 65.744 76.971, 79.824 60.094 C 83.818 55.308, 84.307 54.741, 87.924 50.705 C 90.867 47.422, 90.572 47.360, 85.800 50.255 M 126 55.731 C 109.022 61.665, 85.535 87.489, 70.727 116.500 C 60.263 137.002, 51.236 166.528, 54.044 171.071 C 55.757 173.843, 60.884 169.439, 74.576 153.433 C 82.096 144.642, 100.469 120.119, 109.364 107 C 113.653 100.675, 117.992 94.375, 119.008 93 C 124.724 85.258, 142 58, 142 56.722 C 142 53.606, 133.572 53.084, 126 55.731 M 123.477 59.428 C 115.484 63.462, 104.265 72.133, 99.848 77.691 C 98.190 79.778, 96.494 81.714, 96.080 81.993 C 94.585 82.999, 84.239 97.672, 79.544 105.443 C 67.285 125.734, 51.819 169, 56.825 169 C 58.624 169, 77.704 146.643, 90.122 129.984 C 108.582 105.220, 139.284 59.381, 138.671 57.500 C 138.491 56.950, 136.569 56.367, 134.399 56.204 C 131.471 55.984, 128.657 56.814, 123.477 59.428 M 143.900 61.750 C 141.670 64.228, 133.016 76.500, 130.500 80.751 C 126.630 87.292, 98.957 128.198, 93.828 134.959 C 90.348 139.548, 86.600 144.518, 85.500 146.004 C 82.213 150.445, 75.035 158.858, 65.750 169.151 C 57.616 178.169, 55.728 181, 57.850 181 C 59.760 181, 66.948 174.870, 73.202 167.907 C 85.926 153.740, 114.293 114.901, 126.017 95.596 C 128.323 91.798, 130.634 88.198, 131.152 87.596 C 132.714 85.781, 145.419 64.707, 146.734 61.750 C 147.407 60.237, 147.601 59, 147.166 59 C 146.730 59, 145.261 60.237, 143.900 61.750 M 57.626 129.250 C 56.845 130.488, 55.459 134.200, 54.547 137.500 C 53.635 140.800, 52.212 144.975, 51.384 146.779 C 49.509 150.863, 48.211 164.997, 49.851 163.472 C 50.458 162.907, 51.171 160.757, 51.435 158.695 C 51.699 156.633, 52.179 154.519, 52.502 153.996 C 52.825 153.474, 53.285 151.799, 53.525 150.273 C 54.381 144.829, 56.263 137.492, 56.929 137 C 57.642 136.474, 59.968 127, 59.384 127 C 59.198 127, 58.407 128.012, 57.626 129.250 M 152 156.382 C 152 158.307, 152.450 160.160, 153 160.500 C 153.594 160.867, 154 159.697, 154 157.618 C 154 155.693, 153.550 153.840, 153 153.500 C 152.406 153.133, 152 154.303, 152 156.382 M 72.031 165.250 C 66.750 171.255, 66.471 171.727, 70.409 168 C 74.729 163.911, 79.672 158, 78.772 158 C 78.572 158, 75.538 161.262, 72.031 165.250 M 48.015 168.250 C 48.027 170.716, 48.264 171.138, 49 170 C 50.270 168.035, 50.270 165, 49 165 C 48.450 165, 48.007 166.463, 48.015 168.250 M 284.607 212.582 C 283.671 215.022, 283.945 215.699, 285.080 213.750 C 286.358 211.557, 289 211.459, 289 213.606 C 289 214.489, 288.305 217.892, 287.457 221.167 C 286.608 224.443, 285.820 230.803, 285.707 235.299 C 285.539 241.944, 285.196 243.534, 283.876 243.787 C 281.134 244.313, 281.026 239.723, 283.330 220.500 L 283.929 215.500 282.508 221 C 280.654 228.180, 279.580 239.190, 280.412 242.504 C 280.949 244.644, 281.569 245.069, 283.785 244.813 C 286.494 244.501, 286.502 244.475, 287.215 234 C 287.609 228.225, 288.561 221.250, 289.332 218.500 C 290.102 215.750, 290.520 212.938, 290.259 212.250 C 289.580 210.457, 285.327 210.706, 284.607 212.582 M 133.107 215.750 C 132.251 219.063, 130.010 235.592, 130.003 238.656 C 130.001 239.523, 129.402 239.530, 127.605 238.682 C 125.787 237.824, 125.063 236.480, 124.600 233.099 C 124.264 230.650, 123.247 227.826, 122.340 226.823 C 120.161 224.415, 115.496 224.504, 113 227 L 111 229 111 226.434 C 111 224.224, 110.618 223.911, 108.250 224.184 C 105.549 224.494, 105.486 224.659, 104.703 233.405 C 103.812 243.353, 104.109 245, 106.795 245 C 108.077 245, 109.712 242.933, 112.076 238.322 C 115.787 231.085, 117.676 229.541, 118.367 233.179 C 120.256 243.128, 120.425 243.491, 123.310 243.822 C 124.856 243.999, 126.716 243.651, 127.444 243.047 C 128.433 242.226, 128.914 242.333, 129.352 243.474 C 129.674 244.314, 131.028 245, 132.362 245 C 134.829 245, 136 243.364, 136 239.918 C 136 237.134, 137.229 237.545, 140.731 241.500 C 144.010 245.204, 148.412 246.188, 150.842 243.758 C 151.830 242.770, 152.251 242.787, 152.905 243.846 C 153.357 244.577, 154.800 245.023, 156.113 244.837 C 158.306 244.527, 158.561 243.890, 159.252 237 C 159.665 232.875, 160.115 228.421, 160.252 227.101 C 160.388 225.782, 160.050 224.544, 159.500 224.351 C 158.950 224.158, 158.430 225.463, 158.344 227.250 C 157.682 240.989, 157.248 243.504, 155.479 243.853 C 153.832 244.178, 153.737 243.510, 154.302 235.506 C 154.640 230.721, 155.498 226.101, 156.208 225.240 C 157.285 223.936, 157.253 223.757, 156.016 224.165 C 155.037 224.489, 154.084 227.344, 153.214 232.556 C 151.156 244.897, 147.558 247.051, 140.996 239.872 C 136.880 235.370, 135 235.438, 135 240.090 C 135 242.849, 132.739 245.072, 131.347 243.680 C 130.711 243.045, 133.717 215.268, 134.571 213.885 C 134.872 213.398, 135.766 213, 136.559 213 C 138.293 213, 138.405 216.013, 136.928 222.898 C 136.339 225.646, 136.002 229.021, 136.178 230.399 C 136.490 232.827, 136.658 232.752, 141.676 227.952 C 147.661 222.225, 147.332 221.312, 141.180 226.578 C 138.881 228.546, 137 229.925, 137 229.643 C 137 229.361, 137.688 225.860, 138.529 221.862 C 140.294 213.470, 140.002 212, 136.570 212 C 134.528 212, 133.902 212.679, 133.107 215.750 M 156.659 214.446 C 155.545 217.349, 157.062 219.127, 160.378 218.804 C 162.960 218.553, 163.500 218.068, 163.500 216 C 163.500 213.932, 162.960 213.447, 160.378 213.196 C 158.270 212.991, 157.062 213.397, 156.659 214.446 M 295.362 214.500 C 294.419 216.957, 295.774 219, 298.346 219 C 301.201 219, 303.460 216.641, 302.643 214.513 C 301.876 212.514, 296.128 212.504, 295.362 214.500 M 158 216.070 C 158 217.641, 158.539 218.062, 160.240 217.820 C 163.564 217.345, 163.856 214, 160.573 214 C 158.638 214, 158 214.513, 158 216.070 M 296.481 215.030 C 296.093 215.659, 296.227 216.627, 296.781 217.181 C 298.202 218.602, 301.500 217.767, 301.500 215.986 C 301.500 214.188, 297.476 213.422, 296.481 215.030 M 31.366 216.919 C 24.468 221.125, 19.352 232.087, 21.790 237.437 C 24.583 243.568, 35.977 245.994, 45.009 242.380 C 48.924 240.813, 51.590 237.923, 50.304 236.637 C 49.960 236.293, 49.181 237.009, 48.573 238.228 C 46.337 242.714, 32.956 244.490, 27.314 241.050 C 21.390 237.438, 20.931 234.075, 25.155 225.236 C 26.512 222.394, 28.607 220.142, 31.434 218.486 C 36.245 215.666, 39.857 215.358, 43.855 217.425 C 50.324 220.770, 50.878 232.498, 44.685 234.993 C 42.629 235.821, 42.618 235.879, 44.500 235.972 C 46.296 236.061, 46.245 236.217, 44 237.500 C 42.625 238.286, 41.976 238.945, 42.559 238.965 C 43.141 238.984, 44.491 238.339, 45.559 237.532 C 46.626 236.724, 47.163 236.049, 46.750 236.032 C 46.337 236.014, 46.889 235.111, 47.975 234.025 C 52.329 229.671, 51.771 223.571, 46.541 218.341 C 43.775 215.575, 42.451 215.001, 38.850 215.004 C 36.333 215.006, 33.179 215.813, 31.366 216.919 M 60.603 216.477 C 58.460 217.240, 56.015 218.557, 55.170 219.402 C 53.788 220.783, 53.810 221.132, 55.385 222.873 C 57.044 224.707, 57.048 225.285, 55.449 233.985 C 54.279 240.354, 54.081 243.481, 54.805 244.205 C 55.379 244.779, 59.232 245.304, 63.368 245.374 C 70.841 245.499, 70.914 245.475, 74.944 241.547 C 79.578 237.031, 80.235 233.235, 76.952 229.952 L 74.903 227.903 77.452 224.875 C 80.530 221.216, 80.547 220.965, 77.927 217.635 C 76.113 215.329, 75.147 215.005, 70.177 215.044 C 67.055 215.068, 62.746 215.713, 60.603 216.477 M 221.687 218.750 C 213.432 231.973, 208.913 240.311, 209.198 241.792 C 209.768 244.751, 213.865 243.841, 216.139 240.250 C 217.270 238.463, 217.799 237, 217.314 237 C 216.828 237, 215.634 238.350, 214.659 240 C 213.684 241.650, 212.448 243, 211.912 243 C 209.452 243, 210.163 239.646, 213.754 234.316 C 215.909 231.117, 219.158 225.688, 220.975 222.250 C 223.218 218.006, 224.876 216, 226.139 216 C 227.313 216, 228 216.715, 228 217.936 C 228 221.123, 233.691 234.906, 236.560 238.667 C 238.563 241.294, 238.945 242.455, 238.088 243.312 C 236.428 244.972, 233.874 243.115, 231.640 238.624 C 229.503 234.328, 228.410 234.318, 230.042 238.609 C 231.593 242.691, 233.944 245, 236.548 245 C 239.971 245, 240.384 242.161, 237.554 238.078 C 235.144 234.600, 230.751 223.451, 229.544 217.750 C 228.641 213.484, 224.658 213.991, 221.687 218.750 M 246.973 219.101 C 246.365 221.356, 246.113 223.446, 246.411 223.744 C 246.991 224.324, 247.476 223.128, 248.436 218.750 C 248.788 217.139, 249.705 216, 250.647 216 C 251.974 216, 252.143 216.745, 251.614 220.250 C 251.163 223.235, 251.269 224.053, 251.970 223 C 252.520 222.175, 252.976 220.037, 252.985 218.250 C 252.998 215.459, 252.652 215, 250.539 215 C 248.503 215, 247.886 215.709, 246.973 219.101 M 61.608 217.329 C 57.103 218.688, 54.690 221.551, 56.891 222.924 C 58.070 223.660, 58.082 225.246, 56.964 233.386 C 55.630 243.099, 55.827 244.664, 58.265 243.729 C 59.167 243.382, 60.032 239.609, 60.871 232.355 C 61.561 226.385, 62.556 221.064, 63.082 220.531 C 63.951 219.650, 63.557 224.111, 62.445 227.750 C 61.953 229.358, 62.473 229.324, 65.961 227.520 C 69.520 225.680, 73.186 221.146, 72.340 219.632 C 71.930 218.899, 72.163 218.923, 73.002 219.699 C 74.764 221.329, 72.058 225.443, 67.426 228.176 C 62.962 230.810, 62.993 232.425, 67.493 231.695 C 70.616 231.188, 74 232.718, 74 234.637 C 74 237.614, 68.072 242, 64.050 242 C 62.894 242, 62 242.655, 62 243.500 C 62 247.075, 72.332 243.936, 76.027 239.238 C 78.697 235.844, 78.508 233.375, 75.354 230.452 L 72.708 228 75.354 225.548 C 82.615 218.818, 73.912 213.614, 61.608 217.329 M 41.156 220.161 C 45.001 223.547, 46.309 226.554, 45 229 C 43.518 231.770, 42.836 231.501, 43.602 228.449 C 44.231 225.945, 42.051 223.078, 39.500 223.054 C 38.950 223.049, 39.543 223.847, 40.818 224.828 C 42.639 226.229, 42.991 227.188, 42.459 229.305 C 41.664 232.473, 42.960 232.807, 45.435 230.072 C 48.130 227.094, 45.614 221.346, 40.511 218.819 C 39.124 218.132, 39.324 218.548, 41.156 220.161 M 31.638 222.013 C 27.851 225.338, 24.613 232.204, 25.505 235.016 C 26.214 237.248, 30.700 240.298, 32.311 239.642 C 33.009 239.358, 32.842 239.125, 31.905 239.079 C 28.787 238.925, 26.683 235.338, 27.339 231.296 C 28.102 226.598, 30.575 223.234, 35.017 220.851 C 36.984 219.797, 37.738 219, 36.769 219 C 35.834 219, 33.526 220.356, 31.638 222.013 M 265.209 223.566 C 259.579 227.510, 257.074 239.074, 261 243 C 265.791 247.791, 278.246 243.243, 277.937 236.816 C 277.902 236.092, 277.467 236.510, 276.971 237.744 C 275.816 240.617, 270.300 243.991, 266.750 243.996 C 263.114 244.001, 260 240.756, 260 236.960 C 260 233.029, 263.220 226.759, 266.607 224.095 C 269.688 221.671, 268.536 221.236, 265.209 223.566 M 274.435 223.928 C 276.675 226.404, 275.754 229.486, 271.610 233.385 C 268.861 235.971, 268.790 236.163, 271 235.038 C 276.210 232.387, 278.742 226.142, 275.800 223.200 C 273.799 221.199, 272.562 221.859, 274.435 223.928 M 306.595 224.499 C 300.422 230.220, 299.246 240.793, 304.400 244.235 C 308.628 247.058, 319.279 242.705, 319.740 237.966 C 319.955 235.758, 319.889 235.710, 319.108 237.500 C 317.645 240.855, 314.356 243.143, 310.194 243.701 C 307.040 244.124, 305.801 243.801, 304.116 242.116 C 302.952 240.952, 302 238.884, 302 237.520 C 302 233.359, 305.059 227.100, 308.366 224.493 C 310.090 223.134, 311.003 222.017, 310.396 222.011 C 309.789 222.005, 308.079 223.125, 306.595 224.499 M 316.429 223.571 C 318.925 226.068, 318.277 229.002, 314.429 232.632 C 312.465 234.484, 311.305 236, 311.852 236 C 314.004 236, 319 229.796, 319 227.123 C 319 224.444, 317.439 222, 315.729 222 C 315.249 222, 315.564 222.707, 316.429 223.571 M 31.536 226.140 C 28.628 229.596, 28.328 234.993, 31 235.798 C 32.211 236.163, 32.259 235.994, 31.250 234.925 C 28.544 232.056, 30.897 225.791, 35.357 223.992 C 36.933 223.356, 37.061 223.110, 35.839 223.063 C 34.925 223.029, 32.989 224.413, 31.536 226.140 M 88.033 225.626 C 82.241 230.499, 78.999 240.599, 82.200 243.800 C 84.024 245.624, 88.430 245.236, 91.273 243 C 94.480 240.478, 94.790 240.497, 95.180 243.250 C 95.409 244.862, 96.281 245.590, 98.256 245.817 C 101.450 246.184, 102.925 243.820, 100.970 241.464 C 100.076 240.387, 99.906 237.918, 100.377 232.851 C 100.945 226.744, 100.789 225.560, 99.269 224.406 C 96.537 222.333, 95.472 222.759, 97.575 225.083 C 99.121 226.791, 99.402 228.415, 99.138 234.120 C 98.935 238.521, 99.259 241.607, 100.021 242.525 C 100.980 243.681, 100.906 244.099, 99.661 244.577 C 97.401 245.444, 96 244.244, 96 241.441 C 96 238.300, 93.983 238.324, 91 241.500 C 87.135 245.614, 82 244.336, 82 239.260 C 82 235.732, 85.444 229.696, 89.476 226.155 C 93.796 222.363, 92.483 221.881, 88.033 225.626 M 149.467 224.039 C 149.864 225.084, 148.599 226.602, 145.526 228.769 C 140.424 232.365, 140.020 233.769, 143.250 236.677 C 147.287 240.311, 148.581 240.386, 145.189 236.790 L 141.879 233.280 145.016 230.640 C 146.742 229.188, 148.521 228, 148.970 228 C 150.374 228, 151.119 224.719, 149.974 223.583 C 149.187 222.803, 149.045 222.931, 149.467 224.039 M 197.457 224.863 C 193.596 227.218, 189.179 232.437, 188.391 235.577 C 187.570 238.848, 185.175 238.649, 184.456 235.250 C 184.136 233.738, 183.642 231.378, 183.357 230.006 C 183.072 228.634, 182.370 226.946, 181.797 226.256 C 180.322 224.478, 174.497 224.696, 172.927 226.588 C 171.742 228.016, 171.531 227.965, 170.837 226.088 C 170.334 224.729, 169.186 224, 167.551 224 C 164.553 224, 164.184 225.224, 163.784 236.500 C 163.515 244.080, 163.615 244.516, 165.698 244.813 C 167.419 245.058, 168.368 244.192, 170.078 240.813 C 172.813 235.410, 175.892 231, 176.929 231 C 177.365 231, 177.994 233.298, 178.326 236.106 C 178.659 238.914, 179.452 241.839, 180.088 242.606 C 181.447 244.243, 184.368 244.408, 187.005 242.997 C 188.257 242.327, 189.084 242.327, 189.498 242.997 C 190.413 244.477, 194.682 244.216, 198.050 242.474 C 200.782 241.061, 201 241.080, 200.996 242.724 C 200.994 243.701, 200.101 245.963, 199.011 247.750 C 197.921 249.537, 197.461 251, 197.989 251 C 200.178 251, 204.001 239.737, 202.192 238.619 C 201.683 238.304, 200.485 238.911, 199.530 239.967 C 195.964 243.907, 189 243.395, 189 239.193 C 189 235.462, 193.304 228.987, 197.736 226.052 C 202.700 222.763, 202.475 221.803, 197.457 224.863 M 207.429 224.571 C 209.294 226.437, 209.266 226.170, 207.951 229.629 C 207.374 231.147, 206.485 235.678, 205.975 239.697 C 205.465 243.717, 204.384 248.291, 203.571 249.862 C 200.858 255.110, 194.266 256.186, 188.396 252.340 C 185.754 250.609, 185.023 247.391, 187.500 248.393 C 192.104 250.256, 192.533 250.295, 190.500 248.666 C 186.413 245.391, 182.329 247.496, 185.650 251.165 C 190.453 256.473, 197.173 257.408, 201.904 253.427 C 205.161 250.686, 206.396 247.190, 207.506 237.565 C 207.882 234.301, 208.597 230.559, 209.095 229.250 C 210.059 226.714, 208.750 223, 206.893 223 C 206.323 223, 206.564 223.707, 207.429 224.571 M 222.100 227.518 C 220.781 230.003, 219.974 232.307, 220.305 232.638 C 221.223 233.557, 228 232.046, 228 230.923 C 228 229.791, 225.256 223, 224.799 223 C 224.633 223, 223.418 225.033, 222.100 227.518 M 323.661 223.750 C 322.682 225.355, 321.806 238.152, 322.442 241.543 C 323.024 244.644, 323.450 245.080, 325.633 244.811 C 327.690 244.557, 328.480 243.529, 329.934 239.216 C 332.169 232.588, 335.425 229, 339.206 229 C 340.834 229, 342.313 228.349, 342.643 227.487 C 343.254 225.896, 341.423 223, 339.806 223 C 339.284 223, 339.568 223.711, 340.438 224.581 C 342.510 226.653, 341.399 228.317, 338.439 227.574 C 335.477 226.831, 331.241 231.801, 328.919 238.744 C 327.992 241.515, 326.634 243.635, 325.664 243.823 C 324.211 244.106, 324 243.004, 324 235.145 C 324 228.295, 324.376 225.767, 325.571 224.571 C 326.948 223.195, 326.955 223, 325.630 223 C 324.799 223, 323.912 223.338, 323.661 223.750 M 328.284 223.651 C 328.610 224.179, 328.497 226.297, 328.032 228.357 C 327.436 231.001, 327.516 231.995, 328.305 231.732 C 329.708 231.264, 330.031 224.137, 328.686 223.306 C 328.139 222.968, 327.958 223.123, 328.284 223.651 M 332.004 225.496 C 328.644 229.072, 329.900 229.372, 333.766 225.917 C 335.562 224.313, 336.428 223, 335.690 223 C 334.952 223, 333.293 224.123, 332.004 225.496 M 240 226.094 C 240 227.358, 240.806 228.398, 242.035 228.720 C 243.885 229.203, 244.012 229.775, 243.423 234.981 C 242.580 242.428, 243.873 245, 248.458 245 C 250.644 245, 252.938 244.081, 254.923 242.411 C 257.913 239.895, 259.024 237, 257 237 C 256.450 237, 256 237.848, 256 238.885 C 256 241.205, 251.940 244, 248.570 244 C 244.284 244, 242.883 237.681, 245.599 230.601 C 246.013 229.523, 245.384 228.716, 243.602 228.039 C 240.815 226.979, 240.216 225.483, 242.250 224.662 C 242.997 224.361, 242.795 224.126, 241.750 224.079 C 240.615 224.028, 240 224.736, 240 226.094 M 258.250 225.219 C 258.393 225.915, 256.581 226.914, 254.027 227.547 C 249.267 228.727, 248.304 230.206, 248.100 236.643 C 247.973 240.624, 250.159 241.566, 253.201 238.841 L 255.500 236.783 252.732 238.426 C 249.192 240.528, 248.390 238.980, 249.972 233.105 C 250.896 229.673, 251.491 229, 253.604 229 C 254.994 229, 257.002 228.534, 258.066 227.965 C 260.073 226.891, 260.754 224, 259 224 C 258.450 224, 258.113 224.549, 258.250 225.219 M 292.384 226.608 C 292.024 228.042, 291.677 232.655, 291.614 236.858 C 291.502 244.373, 291.541 244.500, 294 244.500 C 296.371 244.500, 296.543 244.113, 297.325 237 C 298.620 225.223, 298.607 224.725, 297 224.271 C 295.807 223.935, 295.774 224.040, 296.835 224.786 C 297.886 225.524, 297.941 226.550, 297.091 229.612 C 296.497 231.750, 296.009 235.895, 296.006 238.823 C 296.001 243.351, 295.738 244.097, 294.250 243.815 C 291.890 243.368, 291.569 239.026, 293.281 230.701 C 294.039 227.015, 294.295 224, 293.849 224 C 293.403 224, 292.744 225.174, 292.384 226.608 M 106.680 225.750 C 106.439 226.162, 105.922 230.438, 105.531 235.250 C 104.670 245.850, 106.029 246.811, 110.304 238.628 C 113.793 231.951, 116.887 228.487, 118.196 229.796 C 118.725 230.325, 119.408 232.725, 119.715 235.129 C 120.021 237.533, 120.676 240.287, 121.171 241.250 C 122.284 243.417, 125.324 243.520, 127.042 241.449 C 128.128 240.141, 127.998 239.812, 126.210 239.345 C 124.577 238.918, 123.937 237.725, 123.418 234.145 C 123.047 231.590, 122.336 228.713, 121.837 227.750 C 120.304 224.794, 116.226 225.642, 112.519 229.689 L 109.140 233.377 109.702 229.189 C 110.155 225.808, 109.960 225, 108.691 225 C 107.826 225, 106.921 225.338, 106.680 225.750 M 165.672 225.750 C 165.427 226.162, 165.063 230.283, 164.863 234.906 C 164.409 245.427, 165.696 246.226, 170.022 238.110 C 173.857 230.915, 176.725 227.937, 177.934 229.893 C 178.381 230.616, 179.016 233.488, 179.346 236.277 C 180.060 242.305, 180.994 243.469, 184.427 242.608 C 187.405 241.860, 187.858 239.458, 185.154 238.751 C 183.816 238.401, 183.128 236.953, 182.653 233.485 C 182.292 230.854, 181.493 228.094, 180.876 227.351 C 178.819 224.872, 175.291 225.824, 172.073 229.728 L 169 233.456 169 229.228 C 169 226.213, 168.586 225, 167.559 225 C 166.766 225, 165.917 225.338, 165.672 225.750 M 222.620 228.671 L 220.910 232.257 223.205 231.642 C 224.467 231.304, 225.775 231.021, 226.111 231.014 C 226.919 230.996, 225.967 226.098, 225.045 225.528 C 224.652 225.285, 223.560 226.699, 222.620 228.671 M 35.145 228.345 C 32.755 230.890, 32.346 233.008, 34.250 232.985 C 36.251 232.960, 37.633 231.668, 38.244 229.251 C 39.047 226.072, 37.662 225.667, 35.145 228.345 M 266.582 229.085 C 263.832 232.353, 263.925 234.316, 266.782 233.304 C 269.617 232.300, 272 229.807, 272 227.845 C 272 225.055, 269.490 225.629, 266.582 229.085 M 309.174 228.314 C 307.004 230.624, 306.227 234, 307.865 234 C 309.713 234, 314 229.756, 314 227.927 C 314 225.323, 311.821 225.498, 309.174 228.314 M 92.199 227.679 C 90.318 228.433, 86 235.608, 86 237.980 C 86 240.963, 88.762 240.467, 92.109 236.883 C 97.184 231.451, 97.241 225.659, 92.199 227.679 M 198.615 229.088 C 195.846 231.266, 192.972 235.964, 193.039 238.200 C 193.061 238.915, 193.676 238.128, 194.407 236.450 C 195.761 233.340, 201.837 227.504, 202.760 228.427 C 203.905 229.571, 200.451 235.364, 197.580 237.115 C 195.667 238.281, 195.124 238.994, 196.146 238.996 C 198.527 239.002, 204 232.360, 204 229.465 C 204 226.434, 202.154 226.305, 198.615 229.088 M 268.050 229.177 C 266.934 230.375, 266.203 231.536, 266.425 231.758 C 267.247 232.580, 271 229.879, 271 228.465 C 271 226.480, 270.435 226.617, 268.050 229.177 M 310.056 229.441 C 307.509 232.152, 308.372 232.911, 311.446 230.663 C 312.452 229.927, 313.092 228.776, 312.868 228.103 C 312.608 227.323, 311.591 227.806, 310.056 229.441 M 35.046 229.914 C 34.272 231.361, 34.257 232, 34.996 232 C 36.209 232, 37.529 229.195, 36.705 228.371 C 36.406 228.073, 35.660 228.767, 35.046 229.914 M 90.709 230.934 C 86.268 236.212, 85.786 241.314, 90.096 237.413 C 93.111 234.685, 95.375 229.975, 94.225 228.825 C 93.631 228.231, 92.324 229.015, 90.709 230.934 M 61.566 234.500 C 60.316 239.143, 60.896 241, 63.596 241 C 66.641 241, 71.694 238.240, 72.501 236.136 C 73.392 233.815, 71.341 232.577, 66.539 232.537 C 62.933 232.507, 62.004 232.874, 61.566 234.500 M 36.500 234.989 C 34.879 235.677, 35.097 235.805, 37.653 235.669 C 39.386 235.576, 40.597 235.162, 40.344 234.750 C 39.784 233.841, 39.106 233.884, 36.500 234.989 M 224.750 235.662 C 225.438 235.940, 226.563 235.940, 227.250 235.662 C 227.938 235.385, 227.375 235.158, 226 235.158 C 224.625 235.158, 224.063 235.385, 224.750 235.662 M 270.500 238.578 C 268.300 239.892, 266.950 240.973, 267.500 240.980 C 268.702 240.995, 275 237.246, 275 236.515 C 275 235.861, 275.207 235.766, 270.500 238.578 M 307.250 236.662 C 305.353 237.428, 305.748 238.795, 308.250 240.129 C 310.323 241.233, 310.387 241.191, 309.064 239.588 C 307.817 238.076, 307.817 237.729, 309.064 236.939 C 310.574 235.984, 309.383 235.802, 307.250 236.662 M 315 237.500 C 314.315 238.325, 313.023 239.036, 312.128 239.079 C 311.106 239.128, 310.962 239.345, 311.740 239.659 C 312.423 239.935, 314.171 239.224, 315.625 238.080 C 317.080 236.936, 317.814 236, 317.257 236 C 316.700 236, 315.685 236.675, 315 237.500 M 36 240 C 33.990 240.644, 33.892 240.806, 35.500 240.830 C 36.600 240.846, 38.400 240.473, 39.500 240 C 42.048 238.905, 39.419 238.905, 36 240" stroke="none" fill="#de7789" fill-rule="evenodd"/><path d="M 104 34.963 C 94.072 38.318, 78.915 48.198, 71.414 56.206 C 53.876 74.927, 36.734 107.700, 31.508 132.500 C 26.765 155.006, 25.985 165.957, 28.403 176.068 C 30.237 183.735, 30.893 184.728, 38.668 191.612 C 49.065 200.817, 55.643 205, 59.722 205 C 68.544 205, 84.569 191.896, 99.466 172.500 C 105.707 164.375, 118.124 146.152, 128.341 130.122 C 133.129 122.610, 136.904 118.474, 137.924 119.621 C 138.896 120.715, 137.563 147.163, 135.937 159.067 C 133.835 174.450, 136.146 195.574, 140.396 199.825 C 146.240 205.669, 154.446 182.361, 155.488 156.959 C 155.747 150.656, 155.596 146.367, 155.154 147.427 C 153.618 151.107, 153.084 146.557, 154.251 139.741 C 155.183 134.304, 155.092 132.414, 153.684 127.886 C 149.816 115.453, 148.893 101.859, 150.937 87.443 C 152.147 78.910, 153.591 74.709, 159.142 63.561 C 164.422 52.959, 164.399 52.899, 152.323 46.469 C 151.676 46.124, 149.697 47.228, 147.925 48.921 C 146.153 50.615, 144.095 52, 143.352 52 C 142.608 52, 139.365 49.365, 136.144 46.144 C 132.923 42.923, 127.861 39.135, 124.894 37.725 C 119.064 34.955, 108.254 33.526, 104 34.963 M 210.500 35.572 C 202.755 37.900, 190.092 44.523, 183.809 49.532 C 164.336 65.055, 154.442 95.213, 161.321 118.073 C 163.620 125.709, 171.308 140.053, 175.804 145.090 C 184.202 154.502, 199.943 165.003, 203.567 163.613 C 204.298 163.332, 205.660 161.617, 206.595 159.801 C 207.530 157.986, 210.501 153.224, 213.197 149.221 L 218.100 141.942 211.504 138.855 C 202.126 134.466, 195.140 127.707, 190.465 118.495 C 186.761 111.199, 186.610 110.514, 186.653 101.199 C 186.692 92.381, 186.986 90.904, 189.885 84.937 C 194.091 76.280, 201.315 68.955, 209.733 64.810 C 215.917 61.766, 217.221 61.500, 225.978 61.500 C 237.468 61.500, 242.076 63.044, 251.621 70.089 C 255.319 72.819, 258.787 74.904, 259.329 74.724 C 259.870 74.543, 263.272 69.529, 266.888 63.580 L 273.462 52.765 269.481 49.420 C 263.727 44.586, 249.367 37.412, 242.988 36.185 C 232.854 34.235, 216.004 33.917, 210.500 35.572 M 298.310 37.787 C 295.471 39.592, 267.038 85.447, 266.913 88.421 C 266.865 89.565, 266.736 95, 266.627 100.500 C 266.451 109.341, 266.073 111.253, 263.367 117 C 258.569 127.187, 252.353 133.317, 241.576 138.489 C 234.305 141.979, 231.791 143.767, 229.342 147.191 C 223.648 155.154, 217.947 165.105, 218.535 166.057 C 219.190 167.116, 277.146 167.367, 283.377 166.338 L 287.254 165.697 286.538 153.099 C 286.145 146.169, 285.750 140.427, 285.662 140.338 C 285.573 140.249, 282.422 139.985, 278.660 139.752 C 274.393 139.487, 271.507 138.820, 270.987 137.978 C 270.446 137.104, 271.597 133.965, 274.257 129.064 C 278.869 120.564, 291.141 101.696, 294.314 98.226 C 296.259 96.099, 296.462 96.067, 297.447 97.726 C 298.137 98.888, 298.615 117.698, 298.834 152.278 L 299.168 205.055 312.834 204.778 L 326.500 204.500 327 186.830 C 327.275 177.112, 327.839 168.823, 328.254 168.410 C 328.669 167.997, 335.644 167.398, 343.754 167.079 L 358.500 166.500 358.778 153.342 L 359.057 140.185 344.278 139.842 C 336.150 139.654, 328.938 139.136, 328.250 138.691 C 327.277 138.061, 327 126.696, 327 87.441 L 327 37 313.250 37.015 C 305.688 37.024, 298.965 37.371, 298.310 37.787 M 85.800 50.255 C 72.183 58.516, 51.913 87.837, 39.351 117.445 C 35.585 126.321, 32 138.847, 32 143.129 C 32 144.643, 31.554 146.157, 31.009 146.494 C 29.905 147.177, 29.924 155, 31.030 155 C 31.834 155, 35.310 145.666, 36.988 139 C 39.220 130.132, 45.204 114.320, 50.149 104.221 C 57.459 89.291, 65.744 76.971, 79.824 60.094 C 83.818 55.308, 84.307 54.741, 87.924 50.705 C 90.867 47.422, 90.572 47.360, 85.800 50.255 M 126 55.731 C 109.022 61.665, 85.535 87.489, 70.727 116.500 C 60.263 137.002, 51.236 166.528, 54.044 171.071 C 55.757 173.843, 60.884 169.439, 74.576 153.433 C 82.096 144.642, 100.469 120.119, 109.364 107 C 113.653 100.675, 117.992 94.375, 119.008 93 C 124.724 85.258, 142 58, 142 56.722 C 142 53.606, 133.572 53.084, 126 55.731 M 143.900 61.750 C 141.670 64.228, 133.016 76.500, 130.500 80.751 C 126.630 87.292, 98.957 128.198, 93.828 134.959 C 90.348 139.548, 86.600 144.518, 85.500 146.004 C 82.213 150.445, 75.035 158.858, 65.750 169.151 C 57.616 178.169, 55.728 181, 57.850 181 C 59.760 181, 66.948 174.870, 73.202 167.907 C 85.926 153.740, 114.293 114.901, 126.017 95.596 C 128.323 91.798, 130.634 88.198, 131.152 87.596 C 132.714 85.781, 145.419 64.707, 146.734 61.750 C 147.407 60.237, 147.601 59, 147.166 59 C 146.730 59, 145.261 60.237, 143.900 61.750 M 57.626 129.250 C 56.845 130.488, 55.459 134.200, 54.547 137.500 C 53.635 140.800, 52.212 144.975, 51.384 146.779 C 49.509 150.863, 48.211 164.997, 49.851 163.472 C 50.458 162.907, 51.171 160.757, 51.435 158.695 C 51.699 156.633, 52.179 154.519, 52.502 153.996 C 52.825 153.474, 53.285 151.799, 53.525 150.273 C 54.381 144.829, 56.263 137.492, 56.929 137 C 57.642 136.474, 59.968 127, 59.384 127 C 59.198 127, 58.407 128.012, 57.626 129.250 M 152 156.382 C 152 158.307, 152.450 160.160, 153 160.500 C 153.594 160.867, 154 159.697, 154 157.618 C 154 155.693, 153.550 153.840, 153 153.500 C 152.406 153.133, 152 154.303, 152 156.382 M 48.015 168.250 C 48.027 170.716, 48.264 171.138, 49 170 C 50.270 168.035, 50.270 165, 49 165 C 48.450 165, 48.007 166.463, 48.015 168.250 M 285.178 213.750 C 283.057 217.907, 280.713 242.047, 282.278 243.612 C 282.628 243.961, 283.569 243.996, 284.370 243.688 C 285.475 243.264, 285.842 241.127, 285.892 234.815 C 285.928 230.242, 286.637 224.025, 287.467 221 C 289.368 214.073, 289.384 212, 287.535 212 C 286.730 212, 285.669 212.787, 285.178 213.750 M 134.571 213.885 C 133.717 215.268, 130.711 243.045, 131.347 243.680 C 132.739 245.072, 135 242.849, 135 240.090 C 135 235.438, 136.880 235.370, 140.996 239.872 C 144.892 244.134, 147.889 245.044, 149.930 242.584 C 150.869 241.453, 150.691 241.037, 149.047 240.515 C 146.108 239.582, 141 235.077, 141 233.417 C 141 232.645, 142.912 230.627, 145.250 228.934 C 147.588 227.241, 149.500 225.363, 149.500 224.761 C 149.500 222.045, 146.600 223.262, 141.373 228.174 L 135.704 233.500 136.350 228 C 136.706 224.975, 137.281 220.363, 137.628 217.750 C 138.150 213.831, 137.985 213, 136.689 213 C 135.825 213, 134.872 213.398, 134.571 213.885 M 158 216.070 C 158 217.641, 158.539 218.062, 160.240 217.820 C 163.564 217.345, 163.856 214, 160.573 214 C 158.638 214, 158 214.513, 158 216.070 M 296.481 215.030 C 296.093 215.659, 296.227 216.627, 296.781 217.181 C 298.202 218.602, 301.500 217.767, 301.500 215.986 C 301.500 214.188, 297.476 213.422, 296.481 215.030 M 31.337 218.514 C 25.318 222.122, 20.605 232.525, 22.979 236.960 C 24.841 240.440, 30.007 243.001, 35 242.919 C 40.879 242.824, 47.010 240.931, 48.357 238.796 C 50.080 236.065, 48.705 235.901, 43.945 238.272 C 38.664 240.902, 32.491 241.023, 28.747 238.570 C 25.042 236.142, 24.568 233.753, 26.805 228.777 C 29.125 223.618, 32.582 220.267, 36.845 219.045 C 39.514 218.279, 40.461 218.517, 42.896 220.566 C 46.639 223.716, 47.659 227.614, 45.394 230.118 C 42.938 232.831, 41.746 232.435, 42.468 229.146 C 43.290 225.405, 39.469 222.491, 35.647 223.944 C 27.873 226.900, 28.343 237.819, 36.127 235.106 C 38.291 234.351, 39.686 234.325, 40.526 235.022 C 42.187 236.400, 46.564 234.683, 47.939 232.114 C 50.511 227.309, 48.418 219.785, 43.855 217.425 C 39.850 215.354, 36.059 215.684, 31.337 218.514 M 61.608 217.329 C 57.060 218.702, 54.691 221.552, 56.935 222.952 C 58.150 223.710, 58.188 225.042, 57.178 231.673 C 55.608 241.991, 55.665 244, 57.531 244 C 59.492 244, 59.626 243.511, 61.045 231.223 C 62.292 220.427, 62.541 219.982, 68.088 218.660 C 69.619 218.295, 71.435 218.598, 72.533 219.400 C 74.315 220.704, 74.319 220.864, 72.621 223.456 C 71.648 224.940, 69.311 227.064, 67.426 228.176 C 62.962 230.810, 62.993 232.425, 67.493 231.695 C 70.616 231.188, 74 232.718, 74 234.637 C 74 237.614, 68.072 242, 64.050 242 C 62.894 242, 62 242.655, 62 243.500 C 62 247.075, 72.332 243.936, 76.027 239.238 C 78.697 235.844, 78.508 233.375, 75.354 230.452 L 72.708 228 75.354 225.548 C 82.615 218.818, 73.912 213.614, 61.608 217.329 M 220.975 222.250 C 219.158 225.688, 215.909 231.117, 213.754 234.316 C 210.163 239.646, 209.452 243, 211.912 243 C 212.448 243, 213.647 241.714, 214.576 240.141 C 215.847 237.990, 217.487 237, 221.208 236.141 C 228.746 234.401, 229.646 234.620, 231.668 238.681 C 233.877 243.120, 236.435 244.965, 238.088 243.312 C 238.945 242.455, 238.563 241.294, 236.560 238.667 C 233.691 234.906, 228 221.123, 228 217.936 C 228 216.715, 227.313 216, 226.139 216 C 224.876 216, 223.218 218.006, 220.975 222.250 M 248.436 218.750 C 247.393 223.506, 247.241 223.702, 244.086 224.333 C 240.317 225.087, 240.105 226.709, 243.602 228.039 C 245.384 228.716, 246.013 229.523, 245.599 230.601 C 244.193 234.267, 243.859 239.869, 244.929 241.867 C 247.024 245.781, 256 243.305, 256 238.812 C 256 236.884, 255.961 236.885, 253.436 238.872 C 250.077 241.514, 247.973 240.635, 248.100 236.643 C 248.304 230.194, 249.264 228.726, 254.027 227.578 C 258.646 226.465, 259.651 224.583, 255.727 224.392 C 250.951 224.159, 250.951 224.159, 251.616 220 C 252.140 216.726, 251.964 216, 250.647 216 C 249.705 216, 248.788 217.139, 248.436 218.750 M 266.607 224.095 C 263.220 226.759, 260 233.029, 260 236.960 C 260 240.756, 263.114 244.001, 266.750 243.996 C 271.380 243.990, 278.736 238.402, 276.741 236.407 C 276.462 236.129, 274.544 237.048, 272.478 238.451 C 270.411 239.853, 268.420 241, 268.052 241 C 266.638 241, 263.549 237.853, 264.541 237.423 C 269.625 235.222, 272.807 232.756, 274.470 229.728 C 276.397 226.221, 276.399 226.098, 274.565 224.071 C 272.187 221.444, 269.969 221.450, 266.607 224.095 M 308.366 224.493 C 305.059 227.100, 302 233.359, 302 237.520 C 302 238.884, 302.952 240.952, 304.116 242.116 C 306.918 244.918, 313.254 244.200, 316.772 240.683 C 320.004 237.450, 319.374 235.144, 315.976 237.769 C 312.799 240.223, 309.718 240.981, 307.642 239.820 C 305.143 238.421, 305.630 237.548, 309.976 235.631 C 316.820 232.611, 319.834 226.977, 316.429 223.571 C 314.228 221.371, 312.003 221.625, 308.366 224.493 M 89.476 226.155 C 85.444 229.696, 82 235.732, 82 239.260 C 82 244.336, 87.135 245.614, 91 241.500 C 93.983 238.324, 96 238.300, 96 241.441 C 96 244.244, 97.401 245.444, 99.661 244.577 C 100.906 244.099, 100.980 243.681, 100.021 242.525 C 99.259 241.607, 98.935 238.521, 99.138 234.120 C 99.402 228.415, 99.121 226.791, 97.575 225.083 C 95.031 222.272, 93.697 222.449, 89.476 226.155 M 197.736 226.052 C 193.304 228.987, 189 235.462, 189 239.193 C 189 243.395, 195.964 243.907, 199.530 239.967 C 203.201 235.910, 203.765 241.576, 200.354 248.250 C 198.723 251.442, 195.852 251.801, 190.346 249.500 C 185.970 247.672, 186 247.672, 186 249.385 C 186 252.844, 194.547 255.845, 199.067 253.972 C 203.045 252.325, 204.846 248.603, 205.975 239.697 C 206.485 235.678, 207.374 231.147, 207.951 229.629 C 209.266 226.170, 209.294 226.437, 207.429 224.571 C 205.139 222.282, 202.914 222.622, 197.736 226.052 M 222.100 227.518 C 220.781 230.003, 219.974 232.307, 220.305 232.638 C 221.223 233.557, 228 232.046, 228 230.923 C 228 229.791, 225.256 223, 224.799 223 C 224.633 223, 223.418 225.033, 222.100 227.518 M 325.636 224.507 C 324.364 225.779, 324 228.144, 324 235.145 C 324 243.004, 324.211 244.106, 325.664 243.823 C 326.634 243.635, 327.992 241.515, 328.919 238.744 C 331.241 231.801, 335.477 226.831, 338.439 227.574 C 341.399 228.317, 342.510 226.653, 340.438 224.581 C 338.072 222.215, 337.060 222.580, 332.345 227.500 C 329.974 229.975, 327.848 232, 327.622 232 C 327.396 232, 327.591 230.313, 328.056 228.251 C 329.045 223.866, 327.958 222.185, 325.636 224.507 M 156.116 225.360 C 155.456 226.155, 154.640 230.721, 154.302 235.506 C 153.724 243.700, 153.799 244.184, 155.594 243.812 C 156.956 243.531, 157.415 242.716, 157.201 240.959 C 157.036 239.607, 157.431 235.655, 158.078 232.177 C 159.312 225.544, 158.449 222.549, 156.116 225.360 M 294.534 224.945 C 293.498 226.621, 291.693 240.759, 292.310 242.366 C 292.655 243.265, 293.567 244, 294.337 244 C 295.357 244, 295.889 242.031, 296.296 236.750 C 296.604 232.762, 297.150 228.550, 297.509 227.388 C 298.173 225.238, 295.639 223.157, 294.534 224.945 M 106.680 225.750 C 106.439 226.162, 105.922 230.438, 105.531 235.250 C 104.670 245.850, 106.029 246.811, 110.304 238.628 C 113.793 231.951, 116.887 228.487, 118.196 229.796 C 118.725 230.325, 119.408 232.725, 119.715 235.129 C 120.021 237.533, 120.676 240.287, 121.171 241.250 C 122.284 243.417, 125.324 243.520, 127.042 241.449 C 128.128 240.141, 127.998 239.812, 126.210 239.345 C 124.577 238.918, 123.937 237.725, 123.418 234.145 C 123.047 231.590, 122.336 228.713, 121.837 227.750 C 120.304 224.794, 116.226 225.642, 112.519 229.689 L 109.140 233.377 109.702 229.189 C 110.155 225.808, 109.960 225, 108.691 225 C 107.826 225, 106.921 225.338, 106.680 225.750 M 165.672 225.750 C 165.427 226.162, 165.063 230.283, 164.863 234.906 C 164.409 245.427, 165.696 246.226, 170.022 238.110 C 173.857 230.915, 176.725 227.937, 177.934 229.893 C 178.381 230.616, 179.016 233.488, 179.346 236.277 C 180.060 242.305, 180.994 243.469, 184.427 242.608 C 187.405 241.860, 187.858 239.458, 185.154 238.751 C 183.816 238.401, 183.128 236.953, 182.653 233.485 C 182.292 230.854, 181.493 228.094, 180.876 227.351 C 178.819 224.872, 175.291 225.824, 172.073 229.728 L 169 233.456 169 229.228 C 169 226.213, 168.586 225, 167.559 225 C 166.766 225, 165.917 225.338, 165.672 225.750 M 35.145 228.345 C 32.755 230.890, 32.346 233.008, 34.250 232.985 C 36.251 232.960, 37.633 231.668, 38.244 229.251 C 39.047 226.072, 37.662 225.667, 35.145 228.345 M 266.582 229.085 C 263.832 232.353, 263.925 234.316, 266.782 233.304 C 269.617 232.300, 272 229.807, 272 227.845 C 272 225.055, 269.490 225.629, 266.582 229.085 M 309.174 228.314 C 307.004 230.624, 306.227 234, 307.865 234 C 309.713 234, 314 229.756, 314 227.927 C 314 225.323, 311.821 225.498, 309.174 228.314 M 92.199 227.679 C 90.318 228.433, 86 235.608, 86 237.980 C 86 240.963, 88.762 240.467, 92.109 236.883 C 97.184 231.451, 97.241 225.659, 92.199 227.679 M 198.615 229.088 C 196.007 231.140, 193 235.885, 193 237.950 C 193 238.528, 194.078 239, 195.396 239 C 198.438 239, 204 232.836, 204 229.465 C 204 226.434, 202.154 226.305, 198.615 229.088" stroke="none" fill="#d81234" fill-rule="evenodd"/></svg>